<?xml version="1.0" standalone="no"?>
<!DOCTYPE svg PUBLIC "-//W3C//DTD SVG 20010904//EN"
 "http://www.w3.org/TR/2001/REC-SVG-20010904/DTD/svg10.dtd">
<svg version="1.0" xmlns="http://www.w3.org/2000/svg"
 width="24.000000pt" height="24.000000pt" viewBox="0 0 24.000000 24.000000"
 preserveAspectRatio="xMidYMid meet">

<g transform="translate(0.000000,24.000000) scale(0.100000,-0.100000)"
fill="#FFFFFF" stroke="none">
<path d="M4 185 c3 -30 9 -80 12 -110 l6 -54 54 -11 c30 -6 62 -9 71 -7 10 3
30 8 45 11 28 6 28 4 44 164 l6 62 -122 0 -122 0 6 -55z m208 -37 c-2 -40 -8
-82 -13 -94 -15 -41 -143 -41 -158 0 -5 12 -11 54 -13 94 l-5 72 97 0 97 0 -5
-72z"/>
<path d="M45 190 c3 -5 27 -10 53 -10 l47 -1 -47 -25 c-27 -13 -48 -29 -48
-34 0 -6 27 -10 60 -10 47 0 60 -3 60 -15 0 -9 -11 -21 -25 -27 -24 -11 -27
-10 -87 20 -3 2 -4 -6 -1 -16 10 -40 116 -38 127 2 13 49 8 56 -36 56 l-43 0
48 30 c26 17 47 32 47 35 0 3 -36 5 -81 5 -51 0 -78 -4 -74 -10z"/>
</g>
</svg>
