<?xml version="1.0" standalone="no"?>
<!DOCTYPE svg PUBLIC "-//W3C//DTD SVG 20010904//EN"
 "http://www.w3.org/TR/2001/REC-SVG-20010904/DTD/svg10.dtd">
<svg version="1.0" xmlns="http://www.w3.org/2000/svg"
 width="512.000000pt" height="512.000000pt" viewBox="0 0 512.000000 512.000000"
 preserveAspectRatio="xMidYMid meet">

<g transform="translate(0.000000,512.000000) scale(0.100000,-0.100000)"
fill="#FFFFFF" stroke="none">
<path d="M310 5113 c-2 -35 403 -4563 409 -4578 7 -17 154 -61 922 -278 l914
-257 920 258 c867 243 920 260 927 283 6 19 409 4525 408 4567 0 9 -457 12
-2250 12 -1237 0 -2250 -3 -2250 -7z m3660 -955 c0 -34 -40 -489 -46 -515 l-4
-23 -1075 0 c-1017 0 -1075 -1 -1075 -17 0 -10 9 -141 22 -290 l22 -273 1028
0 1028 0 0 -22 c1 -30 -152 -1712 -156 -1716 -1 -2 -263 -76 -581 -163 l-578
-160 -545 150 c-300 83 -561 155 -580 161 l-35 10 -33 422 c-18 233 -33 433
-32 446 l0 22 278 -2 277 -3 20 -218 c15 -169 23 -220 35 -227 8 -4 150 -44
315 -88 l300 -81 308 83 c170 46 312 87 316 92 7 8 72 655 71 706 0 17 -55 18
-977 20 l-978 3 -72 815 c-39 448 -72 832 -72 853 l-1 37 1410 0 1410 0 0 -22z"/>
</g>
</svg>
