<?xml version="1.0" standalone="no"?>
<!DOCTYPE svg PUBLIC "-//W3C//DTD SVG 20010904//EN"
 "http://www.w3.org/TR/2001/REC-SVG-20010904/DTD/svg10.dtd">
<svg version="1.0" xmlns="http://www.w3.org/2000/svg"
 width="24.000000pt" height="24.000000pt" viewBox="0 0 24.000000 24.000000"
 preserveAspectRatio="xMidYMid meet">

<g transform="translate(0.000000,24.000000) scale(0.100000,-0.100000)"
fill="#FFFFFF" stroke="none">
<path d="M4 185 c3 -30 9 -80 12 -110 l6 -54 54 -11 c30 -6 62 -9 71 -7 10 3
30 8 45 11 28 6 28 4 44 164 l6 62 -122 0 -122 0 6 -55z m208 -37 c-2 -40 -8
-82 -13 -94 -15 -41 -143 -41 -158 0 -5 12 -11 54 -13 94 l-5 72 97 0 97 0 -5
-72z"/>
<path d="M90 133 c0 -52 -3 -64 -12 -55 -18 18 -27 15 -21 -7 3 -10 16 -21 29
-24 24 -4 24 -3 24 74 0 46 -4 79 -10 79 -6 0 -10 -29 -10 -67z"/>
<path d="M130 155 c0 -38 3 -45 20 -45 11 0 20 -7 20 -15 0 -8 -9 -19 -20 -25
-28 -15 -25 -28 4 -23 38 8 52 83 16 83 -15 0 -20 7 -20 25 0 18 5 25 19 25
11 0 23 5 26 10 4 6 -8 10 -29 10 -36 0 -36 0 -36 -45z"/>
</g>
</svg>
